<svg width="285" height="218" viewBox="0 0 285 218" fill="none" xmlns="http://www.w3.org/2000/svg">
<path d="M284.67 174.811V181.859H263.78V185.704L263.908 188.331V214.668H255.45C253.869 212.361 251.947 210.332 249.682 208.581C247.461 206.829 244.983 205.377 242.249 204.223C239.515 203.027 236.546 202.173 233.342 201.66L230.138 194.099C234.068 191.92 238.362 189.827 243.018 187.819C247.717 185.768 252.331 184.145 256.859 182.949L255.642 184.807V181.859H228.472V174.811H284.67ZM255.45 189.1L256.795 190.51C254.916 191.065 253.1 191.664 251.349 192.304C249.64 192.945 247.931 193.65 246.222 194.419C244.513 195.145 242.74 195.957 240.904 196.854C242.655 197.196 244.471 197.794 246.35 198.648C248.273 199.46 250.131 200.528 251.925 201.852C253.762 203.177 255.407 204.715 256.859 206.466L255.706 207.171C255.663 206.402 255.599 205.548 255.514 204.608C255.471 203.668 255.45 202.664 255.45 201.596V189.1ZM281.979 198.136C281.979 199.545 281.68 200.891 281.082 202.173C280.526 203.454 279.544 204.501 278.134 205.313C276.724 206.124 274.759 206.53 272.239 206.53C271.341 206.53 270.508 206.509 269.739 206.466C269.013 206.381 268.33 206.274 267.689 206.146L267.945 199.097C268.159 199.14 268.415 199.182 268.714 199.225C269.056 199.225 269.483 199.225 269.996 199.225C271.534 199.225 272.538 198.969 273.008 198.456C273.477 197.901 273.712 197.239 273.712 196.47C273.712 195.017 272.794 193.735 270.957 192.625C269.12 191.514 266.429 190.66 262.883 190.062V183.077C266.386 183.547 269.569 184.444 272.431 185.768C275.336 187.05 277.643 188.737 279.351 190.831C281.103 192.881 281.979 195.316 281.979 198.136Z" fill="white"/>
<path d="M210.115 194.291C212.849 195.914 215.369 197.794 217.676 199.93C219.983 202.023 222.076 204.287 223.956 206.722C225.835 209.157 227.523 211.678 229.018 214.284L222.61 217.68C221.029 215.416 219.406 213.301 217.74 211.336C216.074 209.371 214.194 207.491 212.101 205.697C210.05 203.903 207.658 202.194 204.924 200.571L210.115 194.291ZM205.116 184.294C205.116 182.415 205.544 180.77 206.398 179.36C207.295 177.95 208.491 176.84 209.986 176.028C211.482 175.216 213.169 174.811 215.049 174.811C216.928 174.811 218.616 175.216 220.111 176.028C221.606 176.84 222.781 177.95 223.635 179.36C224.533 180.77 224.981 182.415 224.981 184.294C224.981 186.174 224.533 187.84 223.635 189.293C222.781 190.702 221.606 191.813 220.111 192.625C218.616 193.436 216.928 193.842 215.049 193.842C213.169 193.842 211.482 193.458 209.986 192.689C208.491 191.877 207.295 190.745 206.398 189.293C205.544 187.84 205.116 186.174 205.116 184.294ZM211.588 184.294C211.588 185.32 211.909 186.174 212.55 186.858C213.233 187.498 214.066 187.819 215.049 187.819C216.031 187.819 216.843 187.498 217.484 186.858C218.167 186.174 218.509 185.32 218.509 184.294C218.509 183.312 218.167 182.5 217.484 181.859C216.843 181.176 216.031 180.834 215.049 180.834C214.066 180.834 213.233 181.176 212.55 181.859C211.909 182.5 211.588 183.312 211.588 184.294Z" fill="white"/>
<path d="M201.675 174.81V181.859H195.523V214.668H187.064V186.217C186.552 184.892 185.826 183.846 184.886 183.077C183.946 182.265 182.728 181.859 181.233 181.859H180.913V174.81H182.194C183.177 174.81 184.095 175.067 184.95 175.579C185.804 176.092 186.594 177.181 187.321 178.847C187.278 178.634 187.214 178.142 187.128 177.374C187.086 176.605 187.064 175.942 187.064 175.387V170.581H193.985L195.459 174.81H201.675Z" fill="white"/>
<path d="M182.184 174.811V181.859H177.058L180.838 180.642C179.642 181.71 178.681 182.714 177.955 183.654C177.271 184.593 176.78 185.533 176.481 186.473C176.182 187.413 176.032 188.46 176.032 189.613C176.032 191.023 176.203 192.497 176.545 194.035C176.929 195.53 177.293 197.068 177.634 198.648C178.019 200.186 178.211 201.724 178.211 203.262C178.211 205.014 177.997 206.637 177.57 208.132C177.186 209.627 176.46 210.994 175.392 212.233C174.324 213.429 172.828 214.497 170.906 215.437C168.984 216.42 166.484 217.274 163.409 218L161.55 211.08C163.943 210.482 165.715 209.798 166.869 209.029C168.022 208.26 168.77 207.384 169.112 206.402C169.496 205.419 169.688 204.351 169.688 203.198C169.688 201.575 169.496 200.015 169.112 198.52C168.77 197.025 168.407 195.551 168.022 194.099C167.681 192.646 167.51 191.151 167.51 189.613C167.51 188.331 167.659 187.221 167.958 186.281C168.257 185.298 168.706 184.358 169.304 183.461C169.945 182.564 170.714 181.624 171.611 180.642L170.842 181.859H162.64V174.811H182.184Z" fill="white"/>
<path d="M163.928 174.811V181.859H157.776V214.668H149.317C147.737 212.361 145.814 210.332 143.55 208.581C141.329 206.829 138.851 205.377 136.117 204.223C133.383 203.027 130.414 202.173 127.21 201.66L124.006 194.099C127.936 191.92 132.23 189.827 136.886 187.819C141.585 185.768 146.199 184.145 150.727 182.949L149.574 185.063V181.859H122.34V174.811H163.928ZM149.317 189.1L150.663 190.51C147.844 191.322 145.174 192.262 142.653 193.33C140.175 194.355 137.548 195.53 134.771 196.854C136.523 197.196 138.338 197.794 140.218 198.648C142.141 199.46 143.999 200.528 145.793 201.852C147.63 203.177 149.275 204.715 150.727 206.466L149.51 207.171C149.467 206.188 149.424 205.206 149.382 204.223C149.339 203.241 149.317 202.279 149.317 201.34V189.1Z" fill="white"/>
<path d="M107.758 174.81V181.859H101.606V198.328H93.1476V181.154L93.3398 180.129C93.2971 179.317 93.2544 178.676 93.2117 178.207C93.1689 177.737 93.1476 177.032 93.1476 176.092V170.581H100.068L101.542 174.81H107.758ZM83.087 174.362C84.8385 174.362 86.3551 174.597 87.6367 175.067C88.9183 175.537 90.0717 176.284 91.097 177.309C92.165 178.292 93.2117 179.595 94.2369 181.218L94.301 189.933C92.7631 187.028 91.1825 184.892 89.5591 183.525C87.9785 182.115 86.1629 181.411 84.1123 181.411C82.7025 181.411 81.5705 181.752 80.7161 182.436C79.8617 183.077 79.4345 184.081 79.4345 185.448C79.4345 186.943 80.0539 188.075 81.2928 188.844C82.5744 189.57 84.4754 189.976 86.9959 190.061L86.0988 197.751C83.023 197.58 80.5666 196.939 78.7296 195.829C76.8926 194.718 75.5683 193.265 74.7566 191.471C73.945 189.634 73.5391 187.584 73.5391 185.319C73.5391 182.799 73.9663 180.748 74.8207 179.168C75.6751 177.544 76.8286 176.348 78.281 175.579C79.7335 174.768 81.3355 174.362 83.087 174.362ZM65.6573 174.362C67.6224 174.362 69.438 174.768 71.1041 175.579C72.7702 176.391 74.0945 177.673 75.077 179.424C76.1023 181.133 76.615 183.397 76.615 186.217C76.615 188.139 76.1878 189.997 75.3334 191.792C74.5217 193.543 73.176 194.974 71.2963 196.085C69.4594 197.196 67.003 197.751 63.9271 197.751L63.0941 190.125C65.0592 189.997 66.5758 189.741 67.6438 189.356C68.7118 188.929 69.4594 188.395 69.8866 187.754C70.3565 187.071 70.5915 186.323 70.5915 185.512C70.5915 184.145 70.1002 183.119 69.1176 182.436C68.1778 181.752 66.9175 181.411 65.3369 181.411C64.4398 181.411 63.6067 181.453 62.8378 181.539C62.1115 181.624 61.2999 181.795 60.4027 182.051L59.6338 174.938C60.7445 174.725 61.7911 174.575 62.7737 174.49C63.7563 174.404 64.7175 174.362 65.6573 174.362ZM101.606 195.636V217.423H93.1476C91.6097 216.142 90.1145 215.095 88.662 214.284C87.2095 213.429 85.6502 212.724 83.9841 212.169C82.3608 211.614 80.4811 211.144 78.3451 210.759L75.2052 203.646C76.9567 202.664 78.815 201.703 80.7802 200.763C82.788 199.78 84.8385 198.862 86.9318 198.007C89.0678 197.11 91.1397 196.32 93.1476 195.636H101.606ZM93.1476 202.557C91.9941 202.856 90.798 203.24 89.5591 203.71C88.3202 204.18 87.0386 204.714 85.7143 205.312C84.39 205.91 83.0443 206.573 81.6773 207.299L82.254 205.761C84.39 206.103 86.3978 206.679 88.2775 207.491C90.1572 208.26 91.8233 209.264 93.2757 210.503C93.233 209.777 93.1903 208.965 93.1476 208.068C93.1476 207.128 93.1476 206.38 93.1476 205.825V202.557Z" fill="white"/>
<path d="M61.0496 174.811V181.859H54.898V214.668H46.4394C44.8588 212.361 42.9364 210.332 40.6722 208.581C38.4508 206.829 35.973 205.377 33.239 204.223C30.5049 203.027 27.5359 202.173 24.3319 201.66L21.1279 194.099C25.0581 191.92 29.3515 189.827 34.0079 187.819C38.7071 185.768 43.3209 184.145 47.8492 182.949L46.6957 185.063V181.859H19.4618V174.811H61.0496ZM46.4394 189.1L47.7851 190.51C44.9656 191.322 42.2956 192.262 39.7751 193.33C37.2974 194.355 34.6701 195.53 31.8933 196.854C33.6448 197.196 35.4604 197.794 37.3401 198.648C39.2625 199.46 41.1208 200.528 42.915 201.852C44.752 203.177 46.3967 204.715 47.8492 206.466L46.6317 207.171C46.589 206.188 46.5462 205.206 46.5035 204.223C46.4608 203.241 46.4394 202.279 46.4394 201.34V189.1Z" fill="white"/>
<path d="M20.7619 174.81V181.859H14.6102V214.668H6.15167V181.859H0V174.81H6.21575C5.53223 174.041 4.78463 173.165 3.97295 172.183C3.20399 171.2 2.52048 170.303 1.9224 169.491C4.05839 166.031 6.15167 163.318 8.20223 161.353C10.2955 159.388 12.4956 158 14.8025 157.188C17.1093 156.333 19.6512 155.906 22.428 155.906C24.4785 155.906 26.4223 156.077 28.2592 156.419C30.1389 156.761 32.0827 157.359 34.0905 158.213C36.1411 159.025 38.4052 160.136 40.883 161.545C43.3607 162.912 46.2443 164.621 49.5338 166.672L45.1763 172.375C41.716 170.153 38.7683 168.359 36.3333 166.992C33.8983 165.582 31.6768 164.557 29.669 163.916C27.6612 163.275 25.5465 162.955 23.3251 162.955C21.3172 162.955 19.5657 163.34 18.0705 164.108C16.5753 164.877 15.2724 165.839 14.1617 166.992C13.0937 168.146 12.1538 169.342 11.3421 170.581C11.7266 171.264 12.1752 171.99 12.6878 172.759C13.2005 173.528 13.7345 174.212 14.2898 174.81H20.7619Z" fill="white"/>
<path fill-rule="evenodd" clip-rule="evenodd" d="M140.746 149.268C180.716 149.268 213.119 116.866 213.119 76.8959C213.119 36.9256 180.716 4.52329 140.746 4.52329C100.776 4.52329 68.3736 36.9256 68.3736 76.8959C68.3736 116.866 100.776 149.268 140.746 149.268ZM140.746 153.792C183.215 153.792 217.642 119.364 217.642 76.8959C217.642 34.4275 183.215 0 140.746 0C98.2778 0 63.8503 34.4275 63.8503 76.8959C63.8503 119.364 98.2778 153.792 140.746 153.792Z" fill="white"/>
<path d="M143.763 12.4395L134.433 38.4963H169.821C163.787 23.9603 154.46 14.0841 143.763 12.4395ZM169.821 115.296H134.433L143.763 141.353C154.46 139.707 163.787 129.832 169.821 115.296ZM176.404 115.296C172.838 124.621 167.9 132.302 162.415 137.787C174.758 133.398 185.181 125.445 192.86 115.296H176.404ZM182.987 73.8797H205.203C204.689 63.5688 201.778 53.5197 196.701 44.5308H178.598C181.067 53.3078 182.713 63.4567 182.987 73.8797ZM182.987 79.9129C182.713 90.61 181.067 100.485 178.323 109.262H196.425C201.365 100.485 204.655 90.61 204.929 79.9129H182.987ZM143.763 109.262H172.016C174.757 100.485 176.678 90.61 176.952 79.9129H143.763V109.262ZM172.016 44.5308H143.763V73.8797H176.952C176.678 63.1826 175.032 53.3078 172.016 44.5308ZM162.141 16.0056C167.901 21.4905 172.563 29.4452 176.129 38.4963H192.586C184.906 28.0746 174.484 20.12 162.141 16.0056ZM119.352 137.787C113.592 132.302 108.931 124.347 105.365 115.296H88.9071C96.5876 125.718 107.009 133.673 119.352 137.787ZM103.17 109.262C100.427 100.485 98.7805 90.3359 98.5064 79.9129H76.2898C76.804 90.2238 79.7154 100.273 84.7927 109.262H103.17ZM143.763 79.9129H104.541C104.815 90.61 106.461 100.485 109.478 109.262H143.763V79.9129ZM76.2898 73.8797H98.5064C98.7805 63.1826 100.427 53.3078 103.17 44.5308H84.7927C79.7154 53.5197 76.804 63.5688 76.2898 73.8797ZM111.672 38.4963H149.089L137.73 12.4395C127.033 14.0855 117.706 23.9603 111.672 38.4963ZM88.9071 38.4963H105.365C108.929 29.1711 113.865 21.4905 119.352 16.0056C107.009 20.12 96.5862 28.0719 88.9071 38.4963ZM137.73 141.353L148.967 115.296H111.672C117.706 129.834 127.033 139.708 137.73 141.353ZM143.763 44.5308H109.478C106.736 53.3078 104.815 63.1826 104.541 73.8797H143.763V44.5308Z" fill="white"/>
<circle cx="114.45" cy="92.6502" r="5.45" fill="#4387F7"/>
<circle cx="130.8" cy="92.6502" r="5.45" fill="#ED4436"/>
<circle cx="147.15" cy="92.6502" r="5.45" fill="#FFBF04"/>
<circle cx="163.5" cy="92.6502" r="5.45" fill="#35AB55"/>
</svg>
